<?xml version="1.0" standalone="no"?>
<!DOCTYPE svg PUBLIC "-//W3C//DTD SVG 20010904//EN"
 "http://www.w3.org/TR/2001/REC-SVG-20010904/DTD/svg10.dtd">
<svg version="1.0" xmlns="http://www.w3.org/2000/svg"
 width="512.000000pt" height="512.000000pt" viewBox="0 0 512.000000 512.000000"
 preserveAspectRatio="xMidYMid meet">
<metadata>
Created by potrace 1.14, written by Peter Selinger 2001-2017
</metadata>
<g transform="translate(0.000000,512.000000) scale(0.100000,-0.100000)"
fill="#000000" stroke="none">
<path d="M2310 5110 c-42 -4 -84 -10 -95 -13 -11 -4 -42 -9 -70 -12 -27 -4
-70 -11 -95 -17 -25 -5 -56 -12 -70 -14 -52 -10 -236 -66 -326 -100 -412 -154
-826 -454 -1084 -784 -19 -25 -37 -47 -40 -50 -7 -7 -45 -61 -105 -150 -222
-327 -370 -741 -413 -1150 -14 -140 -7 -504 12 -615 3 -16 8 -43 10 -60 8 -58
38 -191 61 -275 229 -815 837 -1459 1635 -1733 280 -96 475 -129 795 -133 258
-3 353 6 572 51 781 162 1472 719 1793 1445 79 177 155 411 174 534 4 21 8 41
10 45 4 6 12 52 21 123 27 208 27 560 1 713 -3 17 -8 44 -10 60 -3 17 -9 53
-15 80 -6 28 -13 61 -15 75 -31 156 -115 389 -206 572 -335 671 -954 1167
-1680 1344 -58 14 -116 28 -130 30 -70 11 -85 14 -195 30 -62 9 -451 12 -535
4z"/>
</g>
</svg>
